<svg xmlns="http://www.w3.org/2000/svg" width="15" height="17" fill="none" viewBox="0 0 15 17">
  <path fill="#3B4599" fill-rule="evenodd" d="M6.475 0H1.807A1.807 1.807 0 0 0 0 1.807V15.06a1.807 1.807 0 0 0 1.807 1.807h4.668V0Zm1.506 16.866h4.669a1.807 1.807 0 0 0 1.807-1.807V1.807A1.807 1.807 0 0 0 12.65 0H7.98v16.866Zm2.26-9.834c.415 0 .752.337.752.753v1.296a.752.752 0 1 1-1.506 0V7.785c0-.417.338-.753.753-.753Zm-5.271.753a.753.753 0 1 0-1.506 0v1.296a.753.753 0 0 0 1.506 0V7.785Z" clip-rule="evenodd"/>
</svg>
