<svg xmlns="http://www.w3.org/2000/svg" width="24" height="24" fill="none" viewBox="0 0 24 24">
  <path fill="#3B4599" fill-rule="evenodd" d="M11.249 2.905H6.58a1.807 1.807 0 0 0-1.808 1.807v13.252a1.807 1.807 0 0 0 1.808 1.808h4.668V2.904Zm1.506 16.867h4.668a1.807 1.807 0 0 0 1.807-1.808V4.712a1.807 1.807 0 0 0-1.807-1.807h-4.668v16.867Zm2.259-9.835c.415 0 .753.338.753.753v1.296a.754.754 0 0 1-1.506 0V10.69c0-.417.337-.753.753-.753Zm-5.271.753a.753.753 0 1 0-1.506 0v1.296a.753.753 0 1 0 1.506 0V10.69Z" clip-rule="evenodd"/>
  <path stroke="#3B4599" stroke-linecap="round" stroke-width="1.5" d="M8.582 20.345v-1.148m6.758 1.148v-1.148"/>
</svg>
