<svg xmlns="http://www.w3.org/2000/svg" width="67" height="26" fill="none" viewBox="0 0 67 26">
  <path fill="#3B4599" d="M2.16 14.347h6.424v-2.92H2.16V2.92h6.91V0H0v25.991h9.477v-2.92H2.16v-8.724Zm16.317 5.922-.045.19a7.853 7.853 0 0 1-.038-.2L13.264 0h-2.397l6.724 25.991h1.555L26.264 0h-2.326l-5.461 20.269Zm12.317-5.922h6.424v-2.92h-6.424V2.92h6.909V0h-9.07v25.991h9.478v-2.92h-7.317v-8.724Zm19.84 5.361c-.733-1.808-1.466-3.616-2.18-5.406a4.631 4.631 0 0 0 1.44-.868c1.575-1.302 2.435-3.562 2.435-6.365 0-1.012-.128-1.98-.376-2.874C51.182 1.537 49.34.009 46.912.009h-5.315V26h2.186V15.007h2.555L50.698 26h2.46l-.205-.506c-.764-1.917-1.548-3.851-2.332-5.786h.013ZM50.117 7.24c0 .84-.082 1.519-.26 2.07-.562 1.836-1.798 2.803-3.576 2.803h-2.486V2.92h2.74c1.639 0 3.589.75 3.589 4.321h-.007ZM64.559.009v.262c-.752 2.143-1.53 4.303-2.307 6.464a649.098 649.098 0 0 0-2.154 6.012 10.278 10.278 0 0 0-.16-.497L55.77 0h-2.42l.172.488c.911 2.622 1.829 5.27 2.746 7.92.9 2.585 1.798 5.18 2.683 7.738v9.845h2.136v-9.88L67 0h-2.441v.009Z"/>
</svg>
