<svg width="133" height="18" viewBox="0 0 133 18" fill="none" xmlns="http://www.w3.org/2000/svg">
<g clip-path="url(#clip0_4766_3923)">
<path d="M2.00833 9.40183H7.98V7.48829H2.00833V1.91354H8.43024V0H0V17.0323H8.8094V15.1188H2.00833V9.40183Z" fill="#3B4599"/>
<path d="M17.1751 13.2822L17.1337 13.4066C17.1218 13.3652 17.11 13.3237 17.0981 13.2763L12.3291 0H10.1016L16.3517 17.0323H17.7972L24.4146 0H22.2523L17.1751 13.2822Z" fill="#3B4599"/>
<path d="M28.626 9.40183H34.5977V7.48829H28.626V1.91354H35.0479V0H26.6177V17.0323H35.4271V15.1188H28.626V9.40183Z" fill="#3B4599"/>
<path d="M47.0681 12.9139C46.3868 11.729 45.7055 10.5442 45.042 9.37116C45.5752 9.22306 46.0077 9.0394 46.3809 8.80243C47.8442 7.94934 48.644 6.46827 48.644 4.63174C48.644 3.96822 48.5255 3.33433 48.2944 2.74782C47.5776 1.00609 45.8655 0.00488281 43.6083 0.00488281H38.6675V17.0372H40.6995V9.83326H43.0751L47.1274 17.0372H49.4141L49.2245 16.7054C48.5136 15.4495 47.7849 14.1817 47.0563 12.9139H47.0681ZM46.5882 4.7443C46.5882 5.29526 46.5112 5.73958 46.3453 6.10096C45.824 7.30359 44.6747 7.93749 43.0218 7.93749H40.7114V1.9125H43.2588C44.7813 1.9125 46.5942 2.40421 46.5942 4.7443H46.5882Z" fill="#3B4599"/>
<path d="M60.0136 0.00592428V0.177728C59.3145 1.58178 58.5917 2.99768 57.869 4.41359C57.1936 5.72878 56.5183 7.04396 55.8666 8.35323C55.8192 8.24067 55.7718 8.13403 55.7185 8.02739L51.844 0H49.5928L49.7527 0.319911C50.5999 2.03795 51.453 3.77376 52.3061 5.50958C53.1414 7.20392 53.9767 8.90419 54.8002 10.5808V17.0323H56.7848V10.5571L62.2826 0H60.0136V0.00592428Z" fill="#3B4599"/>
<path d="M90.7426 6.49015e-05L90.6301 0.100778L87.0399 13.0986L83.3195 -0.00585938H82.0873L82.0399 0.148172C81.3467 2.38162 80.6477 4.66247 79.9486 6.94332C79.3147 9.01089 78.6808 11.0785 78.0469 13.1164L74.3146 6.49015e-05H72.1167L77.1286 16.8783L77.176 17.0383H78.7578L80.1441 12.6425C80.9676 10.0299 81.8088 7.36987 82.6027 4.83427L86.2224 17.0324H87.8101L92.8102 6.49015e-05H90.7426Z" fill="#3B4599"/>
<path d="M97.4541 9.40183H103.426V7.48829H97.4541V1.91354H103.882V0H95.4458V17.0323H104.261V15.1188H97.4541V9.40183Z" fill="#3B4599"/>
<path d="M112.01 0L105.564 17.0323H107.768L110.215 10.3912C111.027 8.1992 111.809 6.04869 112.792 3.30575L117.84 17.0264H120.043L113.693 0H112.01Z" fill="#3B4599"/>
<path d="M132.816 16.7005C132.105 15.4446 131.37 14.1709 130.642 12.8971C129.96 11.7182 129.285 10.5334 128.622 9.36628C129.155 9.21817 129.587 9.03452 129.96 8.79755C131.424 7.94445 132.223 6.46339 132.223 4.62686C132.223 3.96334 132.105 3.33537 131.874 2.74294C131.157 1.0012 129.445 0 127.188 0H122.253V17.0323H124.285V9.82837H126.661L130.713 17.0323H133L132.81 16.7005H132.816ZM130.168 4.74535C130.168 5.2963 130.091 5.74062 129.925 6.102C129.404 7.30463 128.254 7.93853 126.601 7.93853H124.291V1.91354H126.838C128.361 1.91354 130.174 2.40526 130.174 4.74535H130.168Z" fill="#3B4599"/>
</g>
<defs>
<clipPath id="clip0_4766_3923">
<rect width="133" height="17.0382" fill="white"/>
</clipPath>
</defs>
</svg>
