<svg xmlns="http://www.w3.org/2000/svg" width="24" height="24" fill="none" viewBox="0 0 24 24">
  <path fill="#596373" d="M12 4.5c-.653 0-1.209.416-1.416 1a.748.748 0 0 1-1.39.079.75.75 0 0 1-.024-.58 3 3 0 1 1 4.588 3.43c-.3.22-.568.439-.757.668-.186.226-.252.407-.252.563a.66.66 0 0 0 .346.58l7.607 4.112A2.473 2.473 0 0 1 19.526 19H4.472a2.473 2.473 0 0 1-1.176-4.648l6.1-3.298a.75.75 0 0 1 .713 1.32l-6.1 3.297a.973.973 0 0 0 .463 1.829h15.054a.973.973 0 0 0 .463-1.83l-7.607-4.111a2.16 2.16 0 0 1-1.133-1.9c0-.623.278-1.131.594-1.515.314-.38.707-.69 1.035-.928A1.5 1.5 0 0 0 12 4.5Z"/>
</svg>
