<svg xmlns="http://www.w3.org/2000/svg" width="67" height="26" fill="none" viewBox="0 0 67 26">
  <path fill="#3B4599" d="m20.497.009-.124.154-3.95 19.827L12.328 0h-1.356l-.052.235c-.763 3.407-1.532 6.886-2.301 10.366-.698 3.154-1.395 6.308-2.093 9.416L2.419.01H0l5.515 25.747.053.244h1.74l1.526-6.706c.906-3.985 1.832-8.043 2.705-11.91l3.984 18.607h1.747L22.773.009h-2.276Zm7.387 14.341h6.572v-2.918h-6.572V2.928h7.074V.008h-9.284v25.983h9.7v-2.92h-7.49v-8.72ZM43.902.009 36.809 25.99h2.425l2.692-10.131a1364.36 1364.36 0 0 0 2.836-10.808l5.555 20.93h2.425L45.753.009h-1.851Zm22.896 25.476c-.782-1.916-1.59-3.86-2.393-5.802a1009.48 1009.48 0 0 1-2.223-5.386 4.759 4.759 0 0 0 1.474-.868c1.61-1.301 2.49-3.56 2.49-6.362 0-1.012-.13-1.97-.385-2.874-.788-2.657-2.673-4.184-5.156-4.184h-5.431V25.99h2.236V15h2.614l4.46 10.99H67l-.209-.506h.007ZM63.884 7.248c0 .84-.085 1.518-.267 2.07-.574 1.834-1.839 2.8-3.658 2.8h-2.543v-9.19h2.804c1.675 0 3.67.75 3.67 4.32h-.006Z"/>
</svg>
