<svg xmlns="http://www.w3.org/2000/svg" width="22" height="23" fill="none" viewBox="0 0 22 23">
  <path stroke="#3B4599" stroke-width="2" d="M10.75 14.444a3.102 3.102 0 1 0 0-6.205 3.102 3.102 0 0 0 0 6.205Z"/>
  <path stroke="#3B4599" stroke-width="2" d="M12.575 1.157C12.195 1 11.714 1 10.75 1s-1.446 0-1.825.157a2.068 2.068 0 0 0-1.12 1.12c-.095.23-.134.5-.148.893a1.675 1.675 0 0 1-.817 1.399 1.675 1.675 0 0 1-1.62.008c-.348-.184-.6-.285-.849-.318a2.068 2.068 0 0 0-1.528.41c-.325.25-.567.667-1.049 1.502-.482.834-.723 1.251-.776 1.66a2.068 2.068 0 0 0 .41 1.529c.152.198.366.365.698.574.49.307.804.83.804 1.407 0 .577-.314 1.1-.804 1.407-.332.21-.547.376-.699.575a2.069 2.069 0 0 0-.41 1.53c.055.407.296.825.776 1.659.483.834.724 1.251 1.05 1.503a2.068 2.068 0 0 0 1.53.41c.248-.034.499-.135.846-.32a1.675 1.675 0 0 1 1.62.009c.5.29.797.822.818 1.4.014.392.052.66.148.892a2.069 2.069 0 0 0 1.12 1.12c.38.157.861.157 1.825.157s1.446 0 1.825-.157a2.07 2.07 0 0 0 1.12-1.12c.095-.231.134-.5.148-.893a1.67 1.67 0 0 1 .817-1.4 1.674 1.674 0 0 1 1.62-.007c.348.184.6.285.848.318a2.067 2.067 0 0 0 1.529-.41c.326-.25.567-.668 1.049-1.502.482-.835.724-1.251.776-1.66a2.067 2.067 0 0 0-.41-1.53c-.152-.198-.366-.364-.698-.573a1.676 1.676 0 0 1-.804-1.408c0-.577.314-1.1.804-1.406.332-.21.547-.377.699-.575a2.066 2.066 0 0 0 .41-1.53c-.055-.407-.296-.825-.776-1.66-.483-.834-.724-1.25-1.05-1.502a2.069 2.069 0 0 0-1.53-.41c-.248.034-.499.135-.848.32a1.675 1.675 0 0 1-1.619-.01 1.675 1.675 0 0 1-.817-1.398c-.014-.393-.052-.662-.148-.893a2.067 2.067 0 0 0-1.12-1.12Z"/>
</svg>
