<svg width="6" height="6" viewBox="0 0 6 6" fill="none" xmlns="http://www.w3.org/2000/svg">
<path d="M5.8671 0.137448C5.825 0.0952593 5.77499 0.0617881 5.71994 0.0389507C5.66488 0.0161134 5.60586 0.00435814 5.54626 0.00435814C5.48666 0.00435814 5.42764 0.0161134 5.37258 0.0389507C5.31753 0.0617881 5.26752 0.0952593 5.22542 0.137448L3 2.35832L0.774582 0.132897C0.732449 0.0907636 0.682429 0.0573413 0.627379 0.0345388C0.572328 0.0117362 0.513326 4.4395e-10 0.45374 0C0.394154 -4.4395e-10 0.335151 0.0117362 0.280101 0.0345388C0.225051 0.0573413 0.175031 0.0907636 0.132897 0.132897C0.0907636 0.175031 0.0573413 0.225051 0.0345388 0.280101C0.0117362 0.335151 -4.4395e-10 0.394154 0 0.45374C4.4395e-10 0.513326 0.0117362 0.572328 0.0345388 0.627379C0.0573413 0.682429 0.0907636 0.732449 0.132897 0.774582L2.35832 3L0.132897 5.22542C0.0907636 5.26755 0.0573413 5.31757 0.0345388 5.37262C0.0117362 5.42767 0 5.48667 0 5.54626C0 5.60585 0.0117362 5.66485 0.0345388 5.7199C0.0573413 5.77495 0.0907636 5.82497 0.132897 5.8671C0.175031 5.90924 0.225051 5.94266 0.280101 5.96546C0.335151 5.98826 0.394154 6 0.45374 6C0.513326 6 0.572328 5.98826 0.627379 5.96546C0.682429 5.94266 0.732449 5.90924 0.774582 5.8671L3 3.64169L5.22542 5.8671C5.26755 5.90924 5.31757 5.94266 5.37262 5.96546C5.42767 5.98826 5.48667 6 5.54626 6C5.60585 6 5.66485 5.98826 5.7199 5.96546C5.77495 5.94266 5.82497 5.90924 5.8671 5.8671C5.90924 5.82497 5.94266 5.77495 5.96546 5.7199C5.98826 5.66485 6 5.60585 6 5.54626C6 5.48667 5.98826 5.42767 5.96546 5.37262C5.94266 5.31757 5.90924 5.26755 5.8671 5.22542L3.64169 3L5.8671 0.774582C6.04004 0.601646 6.04004 0.310385 5.8671 0.137448Z" fill="#3B4599"/>
</svg>
