<svg xmlns="http://www.w3.org/2000/svg" width="16" height="16" fill="currentColor" viewBox="0 0 16 16">
  <path fill="currentColor" d="M10 14c-.367 0-.68-.13-.941-.391a1.286 1.286 0 0 1-.392-.942V10c0-.367.13-.68.392-.941.261-.261.575-.392.941-.392h2.667c.366 0 .68.13.942.392.261.261.391.575.391.941v2.667c0 .366-.13.68-.391.942a1.284 1.284 0 0 1-.942.391H10Zm0-6.667c-.367 0-.68-.13-.941-.391A1.286 1.286 0 0 1 8.667 6V3.333c0-.366.13-.68.392-.941C9.32 2.132 9.634 2 10 2h2.667c.366 0 .68.13.942.392.261.261.391.575.391.941V6c0 .367-.13.68-.391.942a1.28 1.28 0 0 1-.942.391H10Zm-6.667 0c-.366 0-.68-.13-.941-.391A1.286 1.286 0 0 1 2 6V3.333c0-.366.13-.68.392-.941.261-.26.575-.392.941-.392H6c.367 0 .68.13.942.392.261.261.392.575.391.941V6c0 .367-.13.68-.391.942A1.28 1.28 0 0 1 6 7.333H3.333Zm0 6.667c-.366 0-.68-.13-.941-.391A1.286 1.286 0 0 1 2 12.667V10c0-.367.13-.68.392-.941.261-.261.575-.392.941-.392H6c.367 0 .68.13.942.392.261.261.392.575.391.941v2.667c0 .366-.13.68-.391.942-.26.261-.575.391-.942.391H3.333Z"/>
</svg>
