<svg xmlns="http://www.w3.org/2000/svg" width="16" height="16" fill="none" viewBox="0 0 16 16">
  <path fill="currentColor" d="m5.92 1.355-.635.319c0 1 .025 2.745.434 4.092 1.822.444 2.74.444 4.563 0 .415-1.344.434-2.704.437-4.092l-.637-.319c-.138.18-.366.47-.682.83a8.279 8.279 0 0 1-.69.713c-.113.1-.222.188-.331.256A.685.685 0 0 1 8 3.282a.685.685 0 0 1-.378-.128 2.42 2.42 0 0 1-.331-.256 8.277 8.277 0 0 1-.69-.712c-.316-.36-.544-.651-.682-.83Zm-.27 4.97-3.859 7.722a.267.267 0 0 0 .068.12c.062.071.174.159.331.24.315.168.804.322 1.398.444 1.187.243 2.803.368 4.412.368 1.61 0 3.225-.125 4.413-.368.594-.122 1.084-.276 1.397-.444.16-.082.268-.169.331-.24a.266.266 0 0 0 .069-.12l-3.86-7.722c-1.812.435-2.887.435-4.7 0Z"/>
</svg>
