<svg xmlns="http://www.w3.org/2000/svg" width="18" height="18" fill="none" viewBox="0 0 18 18">
  <path fill="currentColor" fill-rule="evenodd" d="M10.147 2.25c.35 0 .694.081 1.006.238l1.523.762a3.75 3.75 0 0 1 1.915 2.276l1.696 5.654a1.5 1.5 0 0 1-.766 1.773l-.759.379a.75.75 0 0 1-.894-.17l-.367-.412-.201 1.314a2.25 2.25 0 0 1-2.18 1.686H6.881a2.25 2.25 0 0 1-2.18-1.686l-.2-1.314-.368.412a.75.75 0 0 1-.894.17l-.76-.379a1.5 1.5 0 0 1-.765-1.773L3.41 5.526A3.75 3.75 0 0 1 5.325 3.25l1.523-.762a2.25 2.25 0 0 1 1.007-.238h2.292Zm0 1.5H7.855a.75.75 0 0 0-.255.045l-.08.034-.72.36L9 7.612l2.202-3.424-.72-.36a.75.75 0 0 0-.248-.073l-.087-.005Z" clip-rule="evenodd"/>
</svg>
