<svg xmlns="http://www.w3.org/2000/svg" width="16" height="16" fill="none" viewBox="0 0 16 16">
  <path fill="currentColor" d="M9.923 2.005 9.986 2l.075.003.075.011.075.02 4 1.333a.666.666 0 0 1 .452.556l.004.077v3.333a.667.667 0 0 1-.588.662L14 8h-1.334v4.667a1.334 1.334 0 0 1-1.233 1.33l-.1.003H4.667a1.334 1.334 0 0 1-1.33-1.233l-.003-.1V8H2.001a.667.667 0 0 1-.662-.589l-.005-.078V4a.667.667 0 0 1 .384-.604l.072-.029 4-1.333a.667.667 0 0 1 .877.633 1.333 1.333 0 0 0 2.664.1l.006-.16.011-.076.025-.089.029-.069.033-.06.046-.063.046-.053a.79.79 0 0 1 .116-.094l.064-.035.069-.03.072-.02.075-.013Z"/>
</svg>
