<svg xmlns="http://www.w3.org/2000/svg" width="28" height="28" fill="none" viewBox="0 0 28 28">
  <path fill="#3B4599" d="m14.1 20.375-.1.1-.11-.1C9.14 16.065 6 13.215 6 10.325c0-2 1.5-3.5 3.5-3.5 1.54 0 3.04 1 3.57 2.36h1.86c.53-1.36 2.03-2.36 3.57-2.36 2 0 3.5 1.5 3.5 3.5 0 2.89-3.14 5.74-7.9 10.05Zm4.4-15.55c-1.74 0-3.41.81-4.5 2.08-1.09-1.27-2.76-2.08-4.5-2.08-3.08 0-5.5 2.41-5.5 5.5 0 3.77 3.4 6.86 8.55 11.53l1.45 1.32 1.45-1.32c5.15-4.67 8.55-7.76 8.55-11.53 0-3.09-2.42-5.5-5.5-5.5Z"/>
</svg>
