<svg xmlns="http://www.w3.org/2000/svg" width="20" height="20" fill="none" viewBox="0 0 20 20">
  <path fill="#3B4599" d="M9.866 18.889a1.2 1.2 0 0 1-.284.786.91.91 0 0 1-.684.325C4.005 20 0 15.548 0 10S4.005 0 8.898 0c4.006 0 7.418 2.985 8.522 7.113l.778-1.512a.994.994 0 0 1 .593-.51.86.86 0 0 1 .733.119c.221.15.381.394.445.68.064.285.027.588-.104.842l-2.103 4.081a.996.996 0 0 1-.582.508.859.859 0 0 1-.726-.105L12.813 8.86a1.02 1.02 0 0 1-.287-.282 1.183 1.183 0 0 1-.17-.387 1.272 1.272 0 0 1 .089-.845 1.08 1.08 0 0 1 .246-.329c.1-.09.215-.156.337-.196a.848.848 0 0 1 .736.103l1.899 1.23c-.74-3.39-3.472-5.93-6.764-5.93-3.868 0-6.964 3.506-6.964 7.777 0 4.271 3.096 7.778 6.963 7.778.257 0 .503.117.684.325a1.2 1.2 0 0 1 .284.786Z"/>
</svg>
