<svg xmlns="http://www.w3.org/2000/svg" width="27" height="24" fill="currentColor" viewBox="0 0 27 24">
  <path fill="#A0A7B2" fill-rule="evenodd" d="M10.37 24h5.926c4.161 0 6.243 0 7.737-.98a5.867 5.867 0 0 0 1.635-1.605c.999-1.467.999-3.51.999-7.596s0-6.13-.999-7.596a5.867 5.867 0 0 0-1.635-1.606c-.96-.63-2.162-.856-4.004-.936-.878 0-1.634-.653-1.806-1.5a2.752 2.752 0 0 0-2.711-2.18h-4.357C9.837 0 8.703.912 8.444 2.18c-.172.847-.928 1.5-1.807 1.5-1.84.08-3.042.307-4.004.936-.644.423-1.2.969-1.633 1.606-1 1.466-1 3.51-1 7.596s0 6.128.999 7.596c.432.634.986 1.18 1.634 1.605 1.495.98 3.576.98 7.738.98Zm2.963-15.636c-3.068 0-5.556 2.441-5.556 5.453 0 3.012 2.49 5.458 5.556 5.458 3.067 0 5.556-2.443 5.556-5.455S16.4 8.364 13.333 8.364Zm0 2.181c-1.84 0-3.333 1.466-3.333 3.274 0 1.806 1.493 3.272 3.333 3.272s3.334-1.466 3.334-3.272c0-1.807-1.494-3.274-3.334-3.274Zm6.296-1.09a1.1 1.1 0 0 1 1.112-1.09h1.48a1.1 1.1 0 0 1 1.112 1.09 1.101 1.101 0 0 1-1.11 1.09H20.74a1.103 1.103 0 0 1-1.112-1.09Z" clip-rule="evenodd"/>
</svg>
