<svg width="55" height="50" viewBox="0 0 55 50" fill="none" xmlns="http://www.w3.org/2000/svg">
<path d="M5.5 5.5H13.75L19.25 0H35.75L41.25 5.5H49.5C50.9587 5.5 52.3576 6.07946 53.3891 7.11091C54.4205 8.14236 55 9.54131 55 11V44C55 45.4587 54.4205 46.8576 53.3891 47.8891C52.3576 48.9205 50.9587 49.5 49.5 49.5H5.5C4.04131 49.5 2.64236 48.9205 1.61091 47.8891C0.579462 46.8576 0 45.4587 0 44V11C0 9.54131 0.579462 8.14236 1.61091 7.11091C2.64236 6.07946 4.04131 5.5 5.5 5.5ZM27.5 13.75C23.8533 13.75 20.3559 15.1987 17.7773 17.7773C15.1987 20.3559 13.75 23.8533 13.75 27.5C13.75 31.1467 15.1987 34.6441 17.7773 37.2227C20.3559 39.8013 23.8533 41.25 27.5 41.25C31.1467 41.25 34.6441 39.8013 37.2227 37.2227C39.8013 34.6441 41.25 31.1467 41.25 27.5C41.25 23.8533 39.8013 20.3559 37.2227 17.7773C34.6441 15.1987 31.1467 13.75 27.5 13.75ZM27.5 19.25C29.688 19.25 31.7865 20.1192 33.3336 21.6664C34.8808 23.2135 35.75 25.312 35.75 27.5C35.75 29.688 34.8808 31.7865 33.3336 33.3336C31.7865 34.8808 29.688 35.75 27.5 35.75C25.312 35.75 23.2135 34.8808 21.6664 33.3336C20.1192 31.7865 19.25 29.688 19.25 27.5C19.25 25.312 20.1192 23.2135 21.6664 21.6664C23.2135 20.1192 25.312 19.25 27.5 19.25Z" fill="#2B4B9D"/>
</svg>
