<svg xmlns="http://www.w3.org/2000/svg" width="16" height="16" fill="none" viewBox="0 0 16 16">
  <path stroke="currentColor" stroke-linejoin="round" d="M8 14.667a6.646 6.646 0 0 0 4.714-1.953A6.648 6.648 0 0 0 14.666 8a6.646 6.646 0 0 0-1.952-4.714A6.647 6.647 0 0 0 8 1.333a6.647 6.647 0 0 0-4.714 1.953A6.647 6.647 0 0 0 1.333 8a6.647 6.647 0 0 0 1.953 4.714A6.646 6.646 0 0 0 8 14.667Z"/>
  <path stroke="currentColor" stroke-linecap="round" stroke-linejoin="round" d="m5.333 8 2 2 4-4"/>
</svg>
