<svg xmlns="http://www.w3.org/2000/svg" width="236" height="34" fill="none" viewBox="0 0 236 34">
  <path fill="#fff" d="M58.575 13.207h-2.597l3.957-11.462h3.123l3.95 11.462h-2.596l-2.871-8.843h-.09l-2.876 8.843Zm-.163-4.505h6.134v1.891h-6.134V8.702Zm12.4-6.957v11.462h-2.424V1.745h2.424ZM72.44 7.47h13.222v1.655H72.44V7.47Zm5.736.898h2.096v3.074h-2.096V8.368Zm-4.207 4.303h10.228v1.686H73.969v-1.686Zm0-2.332h2.096v3.041h-2.096v-3.042Zm.157-9.866h2.065v1.481h5.705V.473h2.08v5.989h-9.85V.472Zm2.065 3.057v1.308h5.705V3.53H76.19Zm18.201-.804h2.979v1.702h-2.979V2.726ZM90.28.756h1.718v1.372c0 .966-.147 1.875-.442 2.726a5.903 5.903 0 0 1-1.323 2.206c-.589.63-1.345 1.104-2.27 1.419l-1.119-1.64c.82-.272 1.482-.65 1.986-1.134a4.576 4.576 0 0 0 1.103-1.655 5.46 5.46 0 0 0 .347-1.922V.756Zm.425 0h1.703v1.498c0 .451.063.898.189 1.34a4.295 4.295 0 0 0 1.592 2.27c.41.303.903.55 1.48.74l-1.102 1.638c-.873-.304-1.597-.756-2.175-1.355a5.892 5.892 0 0 1-1.277-2.08 7.836 7.836 0 0 1-.41-2.553V.756Zm-1.497 8.59h9.96v5.263h-2.111v-3.593h-7.849v-1.67Zm7.849-9.33h2.112v8.683h-2.112V.016Zm13.741 0h2.096v14.593h-2.096V.016Zm1.623 5.689h2.569v1.734h-2.569V5.705Zm-11.047-3.546h8.51v1.67h-8.51V2.16Zm4.286 2.506c.704 0 1.335.152 1.892.457a3.33 3.33 0 0 1 1.308 1.213c.325.515.488 1.114.488 1.797 0 .683-.163 1.287-.488 1.812a3.441 3.441 0 0 1-1.308 1.23c-.547.294-1.177.441-1.892.441-.704 0-1.339-.147-1.907-.441a3.55 3.55 0 0 1-1.323-1.23c-.316-.525-.473-1.129-.473-1.812s.157-1.282.473-1.797a3.43 3.43 0 0 1 1.323-1.213 3.967 3.967 0 0 1 1.907-.457Zm0 1.702c-.336 0-.63.068-.882.205a1.494 1.494 0 0 0-.599.599c-.147.262-.221.583-.221.961a2 2 0 0 0 .221.961c.147.263.347.468.599.615.252.137.546.205.882.205.326 0 .615-.068.867-.205.252-.147.452-.352.599-.615a2 2 0 0 0 .221-.96c0-.38-.074-.7-.221-.962a1.494 1.494 0 0 0-.599-.6 1.79 1.79 0 0 0-.867-.204ZM104.588.252h2.112v2.553h-2.112V.252ZM126.004 0h2.096v14.594h-2.096V0Zm-4.302 1.513h2.064c0 1.114-.11 2.18-.331 3.2a9.857 9.857 0 0 1-1.071 2.852c-.494.893-1.177 1.723-2.049 2.49-.862.756-1.939 1.45-3.231 2.08l-1.103-1.655c1.408-.683 2.527-1.434 3.357-2.253.84-.83 1.445-1.765 1.812-2.806.368-1.05.552-2.227.552-3.53v-.378Zm-4.933 0h5.91v1.67h-5.91v-1.67Zm13.678 5.043h13.207V8.07h-13.207V6.556Zm1.482 2.254h10.165v3.467h-8.069v1.245h-2.08v-2.569h8.084v-.725h-8.1V8.81Zm.016 4.255h10.559v1.418h-10.559v-1.418Zm.11-12.813h9.992v3.452h-7.896v1.182h-2.065V2.38h7.896v-.71h-7.927V.252Zm.031 4.208h10.229v1.418h-10.229V4.46Zm16.475 3.057h13.207v1.64h-13.207v-1.64Zm5.564-1.544h2.08v2.16h-2.08v-2.16Zm-3.909-.93h10.165v1.592h-10.165V5.043Zm0-4.665h10.039V1.97h-7.958v3.987h-2.081V.378Zm1.482 2.348h8.242v1.53h-8.242v-1.53Zm3.451 7.092c1.608 0 2.853.205 3.735.615.893.41 1.34 1.003 1.34 1.78 0 .778-.447 1.372-1.34 1.782-.882.41-2.127.614-3.735.614-1.597 0-2.842-.204-3.735-.614-.883-.41-1.324-1.004-1.324-1.781 0-.778.441-1.371 1.324-1.781.893-.41 2.138-.615 3.735-.615Zm0 1.53c-1.009 0-1.755.067-2.238.204-.483.137-.725.357-.725.662 0 .305.242.525.725.662.483.126 1.229.189 2.238.189s1.755-.063 2.238-.19c.483-.136.725-.356.725-.661 0-.305-.242-.525-.725-.662s-1.229-.205-2.238-.205Zm7.926-9.142h6.982v1.655h-6.982V2.206Zm3.515 2.317c.62 0 1.166.147 1.639.441.483.294.861.704 1.134 1.23.284.514.426 1.113.426 1.796s-.142 1.287-.426 1.813a3.08 3.08 0 0 1-1.134 1.213c-.473.294-1.019.441-1.639.441-.62 0-1.172-.147-1.655-.44a3.082 3.082 0 0 1-1.135-1.214c-.273-.526-.41-1.13-.41-1.813s.137-1.282.41-1.796a3.057 3.057 0 0 1 1.135-1.23 3.171 3.171 0 0 1 1.655-.441Zm0 1.734c-.253 0-.484.068-.694.205-.21.136-.373.336-.488.598-.116.253-.174.562-.174.93s.058.683.174.946c.115.262.278.462.488.599.21.126.441.189.694.189.262 0 .493-.063.693-.19.2-.136.357-.336.473-.598.115-.263.173-.578.173-.946s-.058-.677-.173-.93a1.372 1.372 0 0 0-.473-.598 1.2 1.2 0 0 0-.693-.205ZM173.634 0h1.986v14.594h-1.986V0Zm-1.749 5.941h2.396v1.687h-2.396V5.94ZM170.561.268h1.954v13.711h-1.954V.268Zm-4.996.126h2.065v2.852h-2.065V.394ZM9.472 18.984h2.112v14.594H9.472V18.984Zm1.576 5.595h2.57v1.718h-2.57v-1.718Zm-5.405-4.082h2.064c0 1.46-.21 2.842-.63 4.145-.41 1.303-1.093 2.5-2.05 3.593-.945 1.082-2.227 2.028-3.845 2.837L0 29.48c1.282-.662 2.338-1.408 3.168-2.238.84-.83 1.46-1.77 1.86-2.82.41-1.062.615-2.244.615-3.547v-.378Zm-4.839 0H6.73v1.686H.804v-1.686Zm17.051-.71h1.718v1.309a8.39 8.39 0 0 1-.441 2.727 6.029 6.029 0 0 1-1.324 2.237c-.599.641-1.36 1.12-2.285 1.434l-1.103-1.639c.82-.283 1.481-.667 1.985-1.15a4.517 4.517 0 0 0 1.104-1.686c.23-.63.346-1.272.346-1.923v-1.308Zm.426 0h1.686v1.498c0 .441.063.872.19 1.292.136.42.335.815.598 1.182.263.368.599.7 1.009.993.41.284.903.515 1.481.694l-1.087 1.639c-.883-.294-1.613-.73-2.19-1.308a5.637 5.637 0 0 1-1.277-2.018 7.32 7.32 0 0 1-.41-2.474v-1.497Zm5.752-.771h2.096v8.62h-2.096v-8.62Zm1.529 3.372h2.506v1.734h-2.506v-1.734Zm-4.192 5.58c1.019 0 1.896.115 2.632.346.735.22 1.303.541 1.702.961.4.41.599.915.599 1.513 0 .589-.2 1.093-.6 1.513-.398.42-.966.741-1.701.962-.736.23-1.613.346-2.632.346-1.009 0-1.886-.115-2.632-.346-.736-.22-1.308-.541-1.718-.962-.4-.42-.599-.924-.599-1.513 0-.599.2-1.103.599-1.513.41-.42.982-.74 1.718-.96.746-.232 1.623-.348 2.632-.348Zm0 1.623c-.62 0-1.14.047-1.56.142-.42.084-.741.215-.962.393a.793.793 0 0 0-.33.662c0 .263.11.484.33.662.22.179.541.316.962.41.42.084.94.126 1.56.126.62 0 1.14-.042 1.56-.126.43-.095.751-.231.961-.41a.82.82 0 0 0 .331-.662.793.793 0 0 0-.33-.662c-.21-.178-.531-.31-.962-.393-.42-.095-.94-.142-1.56-.142Zm21.486-10.575h2.097v14.593h-2.097V19.016Zm-9.708 1.34h8.195v1.654h-8.195v-1.655Zm-.173 9.912-.205-1.702c.883 0 1.839-.005 2.868-.015 1.03-.021 2.08-.058 3.152-.11a46.52 46.52 0 0 0 3.12-.284l.127 1.512c-1.02.168-2.065.3-3.136.394a53.377 53.377 0 0 1-3.105.158 322.83 322.83 0 0 1-2.821.047Zm1.434-8.605h2.033v7.36H34.41v-7.36Zm3.64 0h2.034v7.36H38.05v-7.36Zm10.039 3.893h1.26c.998 0 1.876-.005 2.632-.016a40.35 40.35 0 0 0 2.128-.11 26.303 26.303 0 0 0 2.001-.236l.205 1.639a35.61 35.61 0 0 1-2.064.252c-.673.052-1.403.09-2.19.11-.789.01-1.693.016-2.712.016h-1.26v-1.655Zm0-5.547h7.029v1.67h-4.95v4.539h-2.08v-6.21Zm1.434 2.773h5.169v1.624h-5.17v-1.624Zm7.8-3.766h2.097v8.825h-2.096v-8.825Zm-2.836 9.046c1.03 0 1.918.11 2.664.33.745.221 1.318.537 1.717.947.41.41.615.908.615 1.497 0 .882-.447 1.565-1.34 2.049-.893.483-2.111.724-3.656.724-1.544 0-2.763-.241-3.656-.724-.883-.484-1.324-1.167-1.324-2.05 0-.871.441-1.55 1.324-2.032.893-.494 2.112-.741 3.656-.741Zm0 1.592c-.63 0-1.16.042-1.592.126-.43.084-.756.215-.977.394a.82.82 0 0 0-.33.662c0 .262.11.483.33.662.22.168.547.294.977.378.431.084.962.126 1.592.126.641 0 1.172-.042 1.592-.126.43-.084.756-.21.977-.378.231-.179.347-.4.347-.662 0-.263-.116-.484-.347-.662-.22-.179-.546-.31-.977-.394-.42-.084-.951-.126-1.592-.126Zm7.91-9.204H68.7v1.67h-6.304v-1.67Zm1.892 4.176h2.048v4.965h-2.048v-4.965Zm3.561-4.176h2.08v1.198c0 .704-.02 1.507-.062 2.41-.032.904-.147 1.966-.347 3.184l-2.049-.173c.19-1.166.3-2.185.331-3.057.032-.883.047-1.671.047-2.364V20.45ZM71.175 19h2.08v14.594h-2.08V19Zm1.481 5.863h2.57v1.733h-2.57v-1.733Zm-10.795 5.8-.19-1.703c.852 0 1.776-.005 2.774-.015 1.009-.021 2.028-.058 3.058-.11a51.672 51.672 0 0 0 3.01-.269l.094 1.529a39.67 39.67 0 0 1-3.025.362 60.71 60.71 0 0 1-2.995.174c-.977.02-1.886.031-2.726.031Zm28.121-11.679h2.112v14.641h-2.112v-14.64Zm-9.25 9.535h1.291c.862 0 1.676-.01 2.443-.032a50.868 50.868 0 0 0 2.254-.141 29.76 29.76 0 0 0 2.254-.316l.22 1.687c-1.177.21-2.338.352-3.483.425a66.696 66.696 0 0 1-3.688.095h-1.292v-1.718Zm-.032-8.29h6.887v5.658h-4.728v3.278H80.73v-4.933h4.728v-2.316H80.7v-1.687Zm16.688 7.297h2.096v6.083h-2.096v-6.083Zm5.201 0h2.112v6.083h-2.112v-6.083Zm-8.148-.236h13.207v1.655H94.441V27.29Zm1.497-7.754h2.08v1.591h6.005v-1.591h2.065v6.367h-10.15v-6.367Zm2.08 3.246v1.45h6.005v-1.45h-6.004Zm14.553 3.688h13.222v1.655h-13.222V26.47Zm5.736.899h2.097v3.073h-2.097v-3.073ZM114.1 31.67h10.228v1.686H114.1V31.67Zm0-2.332h2.096v3.041H114.1v-3.042Zm.157-9.866h2.065v1.481h5.705v-1.481h2.08v5.989h-9.85v-5.99Zm2.065 3.057v1.308h5.705V22.53h-5.705Zm18.201-.804h2.979v1.703h-2.979v-1.703Zm-4.113-1.97h1.718v1.372c0 .966-.147 1.875-.442 2.726a5.891 5.891 0 0 1-1.323 2.206c-.589.63-1.345 1.104-2.27 1.419l-1.119-1.64c.82-.272 1.482-.65 1.986-1.134a4.579 4.579 0 0 0 1.103-1.655 5.46 5.46 0 0 0 .347-1.922v-1.372Zm.425 0h1.703v1.498c0 .451.063.898.189 1.34a4.31 4.31 0 0 0 1.591 2.269c.41.304.904.551 1.482.74l-1.103 1.64c-.872-.305-1.597-.757-2.175-1.356a5.889 5.889 0 0 1-1.277-2.08 7.839 7.839 0 0 1-.41-2.553v-1.498Zm-1.497 8.59h9.961v5.263h-2.112v-3.593h-7.849v-1.67Zm7.849-9.33h2.112v8.683h-2.112v-8.683Zm10.999.189c1.66 0 2.952.215 3.877.646.935.43 1.403 1.05 1.403 1.86 0 .798-.468 1.413-1.403 1.844-.925.43-2.217.646-3.877.646-1.671 0-2.973-.216-3.909-.646-.924-.431-1.386-1.046-1.386-1.844 0-.81.462-1.43 1.386-1.86.936-.43 2.238-.646 3.909-.646Zm-.016 1.544c-.693 0-1.271.037-1.733.11-.463.064-.809.169-1.041.316-.22.136-.331.315-.331.536 0 .22.111.404.331.551.232.137.578.237 1.041.3.462.063 1.04.094 1.733.094.704 0 1.287-.031 1.75-.094.462-.063.803-.163 1.024-.3.221-.147.331-.33.331-.551 0-.221-.11-.4-.331-.536-.221-.147-.562-.252-1.024-.315-.463-.074-1.046-.11-1.75-.11Zm-6.603 4.13h13.207v1.654h-13.207v-1.655Zm1.513 2.474h10.086v3.735h-7.99v1.292h-2.081v-2.742h8.007v-.74h-8.022v-1.545Zm.015 4.57h10.465v1.592h-10.465v-1.592Zm19.927-6.24h2.096v2.08h-2.096v-2.08Zm6.178-6.667h2.096v9.944H169.2v-9.944Zm1.371 4.16h2.569v1.734h-2.569v-1.734Zm-10.78 5.485-.236-1.623c.872 0 1.817-.006 2.837-.016a78.616 78.616 0 0 0 3.12-.095 54.32 54.32 0 0 0 3.057-.268l.158 1.434a33.38 33.38 0 0 1-3.105.394 62.41 62.41 0 0 1-3.073.142c-.988.01-1.907.021-2.758.032Zm1.608.867h9.897v4.081H169.2V31.15h-7.801v-1.623Zm-1.482-9.456h8.29v1.512h-8.29v-1.512Zm4.145 1.86c1.082 0 1.944.194 2.585.582.651.379.977.904.977 1.576 0 .673-.326 1.203-.977 1.592-.641.389-1.503.583-2.585.583-1.072 0-1.933-.194-2.585-.583-.64-.389-.961-.92-.961-1.592s.321-1.197.961-1.576c.652-.388 1.513-.583 2.585-.583Zm0 1.355c-.494 0-.877.068-1.15.204-.274.137-.41.337-.41.6 0 .262.136.467.41.614.273.137.656.205 1.15.205.494 0 .877-.068 1.151-.205.283-.147.425-.352.425-.615 0-.262-.142-.462-.425-.599-.274-.136-.657-.204-1.151-.204Zm-1.04-4.397h2.096v1.875h-2.096V18.89Zm21.227.126h2.096v10.48h-2.096v-10.48Zm-7.627 12.655h10.102v1.686h-10.102V31.67Zm0-3.215h2.096v3.908h-2.096v-3.908Zm1.78-8.51c.746 0 1.419.157 2.018.472a3.625 3.625 0 0 1 1.418 1.308c.357.557.536 1.198.536 1.923 0 .704-.179 1.34-.536 1.907a3.743 3.743 0 0 1-1.418 1.324c-.599.315-1.272.473-2.018.473-.746 0-1.418-.158-2.017-.473a3.864 3.864 0 0 1-1.434-1.324 3.582 3.582 0 0 1-.52-1.907c0-.725.173-1.366.52-1.923a3.74 3.74 0 0 1 1.434-1.308c.599-.315 1.271-.473 2.017-.473Zm0 1.796c-.357 0-.682.079-.977.236a1.645 1.645 0 0 0-.693.647c-.168.273-.252.614-.252 1.024 0 .389.084.725.252 1.009.168.273.399.488.693.646.295.147.62.22.977.22.358 0 .683-.073.978-.22.294-.158.525-.373.693-.646.168-.284.252-.62.252-1.009 0-.41-.084-.751-.252-1.024a1.645 1.645 0 0 0-.693-.646 2.04 2.04 0 0 0-.978-.237Zm19.668-2.726h2.096v14.593h-2.096V19.016Zm1.623 5.689h2.569v1.734h-2.569v-1.734Zm-11.048-3.546h8.511v1.67h-8.511v-1.67Zm4.287 2.506c.704 0 1.334.152 1.891.457.557.294.993.699 1.308 1.213.326.515.489 1.114.489 1.797 0 .683-.163 1.287-.489 1.813a3.427 3.427 0 0 1-1.308 1.229c-.546.294-1.177.441-1.891.441-.704 0-1.34-.147-1.907-.441a3.554 3.554 0 0 1-1.324-1.23c-.315-.525-.473-1.129-.473-1.812s.158-1.282.473-1.797a3.436 3.436 0 0 1 1.324-1.213c.567-.305 1.203-.457 1.907-.457Zm0 1.702c-.336 0-.63.068-.883.205a1.5 1.5 0 0 0-.599.599c-.147.262-.22.583-.22.961 0 .368.073.688.22.961.148.263.347.468.599.615.253.137.547.205.883.205.326 0 .615-.068.867-.205.252-.147.452-.352.599-.615.147-.273.22-.593.22-.96 0-.38-.073-.7-.22-.962a1.494 1.494 0 0 0-.599-.6 1.79 1.79 0 0 0-.867-.204Zm-1.072-6.115h2.112v2.553h-2.112v-2.553Zm17.099 4.665h2.427v1.702h-2.427v-1.702Zm-3.105-3.64h1.592v2.442c0 .83-.058 1.645-.174 2.443a10.83 10.83 0 0 1-.567 2.254 7.314 7.314 0 0 1-1.009 1.907 5.173 5.173 0 0 1-1.497 1.37l-1.261-1.575a4.862 4.862 0 0 0 1.371-1.198c.368-.473.668-.993.899-1.56a7.83 7.83 0 0 0 .488-1.765c.105-.62.158-1.245.158-1.876v-2.443Zm.457 0h1.56v2.348c0 .599.042 1.192.126 1.78.095.589.242 1.151.442 1.687.199.536.462 1.03.788 1.481.336.452.756.84 1.26 1.167l-1.15 1.639a5.24 5.24 0 0 1-1.45-1.356 7.259 7.259 0 0 1-.93-1.875 12.115 12.115 0 0 1-.504-2.19 18.959 18.959 0 0 1-.142-2.333v-2.349ZM213.75 19h2.001v14.594h-2.001V19Zm-2.963.236h1.954v13.711h-1.954v-13.71Zm9.833 7.187h2.096v4.082h-2.096v-4.082Zm5.295 0h2.096v4.082h-2.096v-4.082Zm-8.195 3.782h13.223v1.702H217.72v-1.702Zm6.588-10.48c1.05 0 1.985.163 2.805.488.83.326 1.476.783 1.938 1.371.473.578.71 1.267.71 2.065 0 .788-.237 1.476-.71 2.065-.462.578-1.108 1.03-1.938 1.355-.82.326-1.755.489-2.805.489-1.041 0-1.976-.163-2.806-.489-.819-.326-1.465-.777-1.938-1.355-.473-.589-.709-1.277-.709-2.065 0-.798.236-1.487.709-2.065.473-.588 1.119-1.045 1.938-1.37.83-.326 1.765-.49 2.806-.49Zm0 1.623c-.673 0-1.266.095-1.781.284-.505.178-.899.436-1.182.772-.284.336-.426.751-.426 1.245 0 .473.142.883.426 1.23.283.336.677.598 1.182.787.515.179 1.108.268 1.781.268.683 0 1.276-.089 1.781-.268.514-.189.908-.451 1.182-.788.283-.346.425-.756.425-1.229 0-.494-.142-.909-.425-1.245-.274-.336-.668-.594-1.182-.772-.505-.19-1.098-.284-1.781-.284Zm11.064-.603-.218 8.025h-2.049l-.224-8.025h2.491Zm-1.243 11.607c-.369 0-.686-.13-.951-.391a1.277 1.277 0 0 1-.392-.952 1.253 1.253 0 0 1 .392-.94c.265-.261.582-.392.951-.392.355 0 .666.13.935.392a1.284 1.284 0 0 1 .213 1.617 1.45 1.45 0 0 1-.487.487 1.27 1.27 0 0 1-.661.18Z"/>
</svg>
