<?xml version="1.0" standalone="no"?>
<!DOCTYPE svg PUBLIC "-//W3C//DTD SVG 20010904//EN"
 "http://www.w3.org/TR/2001/REC-SVG-20010904/DTD/svg10.dtd">
<svg version="1.0" xmlns="http://www.w3.org/2000/svg"
 width="832.000000pt" height="1248.000000pt" viewBox="0 0 832.000000 1248.000000"
 preserveAspectRatio="xMidYMid meet">

<g transform="translate(0.000000,1248.000000) scale(0.100000,-0.100000)"
fill="#000000" stroke="none">
<path d="M4175 10953 c-220 -25 -373 -97 -537 -252 -149 -141 -216 -263 -285
-521 -35 -129 -36 -142 -36 -295 0 -119 4 -174 16 -217 10 -31 17 -77 17 -103
0 -56 33 -126 89 -194 22 -26 44 -66 51 -90 12 -45 45 -105 75 -134 9 -10 25
-57 35 -107 31 -149 95 -295 169 -384 l41 -48 0 -107 c0 -123 -15 -194 -54
-250 -35 -49 -118 -108 -188 -132 -39 -13 -54 -23 -56 -38 -5 -28 24 -124 55
-185 27 -53 108 -145 158 -178 16 -12 6 0 -23 26 -53 49 -102 120 -102 149 0
10 -4 17 -10 17 -5 0 -10 5 -10 10 0 6 12 10 26 10 21 0 24 3 19 23 -5 19 -4
20 7 7 16 -19 52 -14 44 6 -3 9 1 14 13 14 11 0 22 6 24 13 4 9 7 9 15 -1 7
-11 12 -11 25 2 8 9 20 16 26 16 6 0 11 5 11 11 0 8 5 8 15 -1 17 -14 19 -7 5
20 -7 13 -7 21 2 26 7 4 8 3 4 -4 -4 -6 5 -17 21 -26 15 -8 39 -26 52 -40 28
-30 43 -34 35 -8 -5 14 -4 15 5 2 6 -8 8 -23 5 -34 -4 -12 -2 -16 5 -12 6 4
11 2 11 -4 0 -7 7 -9 17 -6 15 6 15 5 -1 -13 -18 -20 -18 -20 3 -16 19 3 26
-5 22 -27 0 -5 6 -8 14 -8 8 0 15 -7 15 -15 0 -8 6 -12 14 -9 8 3 21 -4 29
-16 9 -12 20 -19 26 -15 6 3 11 -1 11 -9 0 -9 9 -16 20 -16 11 0 21 -7 21 -15
3 -32 4 -36 15 -43 6 -4 15 -31 21 -59 9 -48 8 -53 -9 -59 -11 -3 -43 0 -71 7
-29 7 -56 12 -61 10 -6 -1 -20 3 -32 9 -14 8 -28 9 -40 3 -38 -20 -109 -8
-158 25 -26 18 -44 28 -41 22 8 -13 99 -71 155 -100 93 -47 263 -100 376 -116
106 -16 125 -16 243 -1 212 27 377 92 536 210 105 79 151 159 170 299 8 60
-16 88 -73 88 -39 0 -132 48 -179 92 -57 54 -98 240 -90 407 6 100 10 119 31
150 55 80 100 207 113 321 7 65 18 90 39 90 44 0 101 71 139 173 10 27 24 51
32 54 7 3 13 12 13 20 0 8 9 27 19 42 17 24 55 103 76 156 4 11 9 31 11 45 1
14 5 45 9 70 3 25 8 110 11 190 5 126 2 157 -17 240 -12 52 -23 105 -23 118
-1 12 -4 22 -8 22 -5 0 -8 7 -8 17 0 9 -23 64 -51 122 -104 215 -292 405 -492
496 -112 51 -301 72 -452 51 -16 -3 -34 -2 -39 2 -12 7 -87 10 -131 5z m-10
-679 c9 3 15 0 15 -10 0 -10 7 -13 24 -10 19 3 23 1 19 -15 -3 -10 0 -19 6
-19 6 0 11 -7 11 -16 0 -10 6 -14 14 -11 10 4 12 0 9 -14 -3 -10 0 -26 7 -35
13 -15 15 -92 4 -128 -4 -12 -2 -16 5 -12 18 12 12 -13 -9 -34 -18 -18 -18
-20 -2 -30 11 -8 12 -10 2 -7 -21 5 -44 -41 -29 -59 6 -8 16 -11 22 -7 6 3 7
1 3 -5 -9 -15 -36 -16 -36 -1 0 5 -4 7 -10 4 -5 -3 -10 -11 -10 -16 0 -6 4 -8
8 -5 4 2 13 1 20 -3 9 -5 5 -14 -13 -29 -14 -12 -25 -18 -25 -13 0 5 -8 7 -18
4 -12 -3 -22 4 -31 20 -7 13 -18 24 -24 25 -34 4 -62 10 -62 12 0 3 -8 4 -75
14 -85 12 -143 26 -155 36 -10 8 -19 8 -34 1 -28 -16 -35 3 -9 25 12 11 18 13
13 5 -6 -10 -2 -11 15 -6 25 8 30 11 75 51 28 24 30 31 31 99 1 44 8 85 17
104 9 17 11 29 6 26 -5 -4 -9 -2 -9 2 0 5 8 13 19 18 10 6 33 18 52 29 22 12
34 15 37 7 2 -6 8 -11 13 -11 6 0 7 5 3 12 -5 8 -2 9 9 5 10 -3 17 -2 17 3 0
5 13 4 30 -2 17 -5 37 -7 45 -4z m105 -373 c0 -5 -7 -12 -16 -15 -14 -5 -15
-4 -4 9 14 17 20 19 20 6z m-400 -111 c12 -8 12 -10 1 -10 -26 0 -1 -15 51
-30 28 -9 54 -22 56 -29 3 -8 0 -11 -6 -7 -6 3 -12 1 -14 -4 -3 -11 -51 -15
-98 -8 -27 3 -59 28 -53 41 3 4 1 7 -4 6 -18 -3 -33 2 -33 11 0 6 8 10 18 11
10 0 12 3 4 6 -6 2 -10 9 -6 14 7 12 65 11 84 -1z m360 -10 c0 -5 -5 -10 -11
-10 -5 0 -7 5 -4 10 3 6 8 10 11 10 2 0 4 -4 4 -10z m37 -86 c20 -19 35 -105
28 -154 -14 -90 -17 -115 -17 -137 0 -18 -6 -23 -25 -23 -20 0 -24 3 -17 18
13 27 7 134 -8 143 -8 5 -9 9 -2 9 12 0 4 65 -10 88 -4 7 -2 12 6 12 8 0 9 3
3 8 -9 6 -11 20 -6 43 2 10 36 6 48 -7z m363 -34 c0 -5 -2 -10 -4 -10 -3 0 -8
5 -11 10 -3 6 -1 10 4 10 6 0 11 -4 11 -10z m-50 -19 c0 -12 -29 -41 -41 -41
-5 0 -4 9 3 19 7 11 16 17 20 15 4 -3 8 0 8 5 0 6 2 11 5 11 3 0 5 -4 5 -9z
m-650 -41 c0 -5 -7 -10 -15 -10 -8 0 -15 5 -15 10 0 6 7 10 15 10 8 0 15 -4
15 -10z m720 0 c0 -5 -9 -10 -20 -10 -11 0 -20 5 -20 10 0 6 9 10 20 10 11 0
20 -4 20 -10z m-772 -31 c12 -19 11 -20 -10 -17 -12 2 -24 11 -26 21 -5 24 20
21 36 -4z m275 -64 c-9 -39 -22 -73 -29 -77 -6 -4 -17 -21 -24 -37 -6 -16 -19
-32 -27 -35 -13 -5 -12 -10 8 -27 l23 -20 -21 -20 c-13 -13 -37 -22 -62 -24
-34 -3 -124 -38 -141 -55 -3 -3 -26 -16 -51 -29 -43 -21 -50 -22 -84 -10 -54
20 -63 50 -61 202 1 71 -2 131 -6 133 -5 3 -6 10 -3 15 4 5 1 9 -4 9 -14 0
-14 37 0 45 18 12 47 -23 41 -50 -4 -21 -1 -25 22 -25 14 0 26 -4 26 -9 0 -9
79 -44 97 -43 4 0 13 -3 18 -7 6 -4 39 -7 75 -6 79 2 143 29 148 63 2 12 10
22 19 22 9 0 13 6 9 15 -6 17 25 56 36 46 4 -4 0 -38 -9 -76z m460 60 l18 -25
-39 0 c-49 0 -57 8 -29 31 28 23 28 23 50 -6z m-538 -15 c3 -5 -1 -10 -10 -10
-9 0 -13 5 -10 10 3 6 8 10 10 10 2 0 7 -4 10 -10z m105 -37 c-11 -17 -11 -17
-6 0 3 10 6 24 7 30 0 9 2 9 5 0 3 -7 0 -20 -6 -30z m410 13 c0 -8 -71 -12
-76 -4 -3 4 13 8 35 8 23 0 41 -2 41 -4z m-1070 -130 c0 -8 -7 -19 -15 -26
-12 -10 -15 -10 -15 3 0 25 11 47 21 41 5 -3 9 -11 9 -18z m1203 -91 c-3 -9
-8 -14 -10 -11 -3 3 -2 9 2 15 9 16 15 13 8 -4z m-452 -41 c24 -12 30 -21 27
-42 -4 -32 -45 -57 -65 -40 -8 7 -34 8 -66 4 -63 -7 -101 10 -73 33 9 7 25 11
35 8 13 -3 31 6 52 24 37 33 49 35 90 13z m-711 -4 c0 -5 -4 -10 -10 -10 -5 0
-10 5 -10 10 0 6 5 10 10 10 6 0 10 -4 10 -10z m486 -92 c47 -40 49 -43 30
-46 -11 -3 -15 -10 -12 -20 5 -15 5 -15 -6 -1 -7 9 -18 14 -25 12 -19 -7 -37
35 -22 53 14 17 16 17 35 2z m172 -90 c17 -17 15 -38 -4 -38 -29 0 -8 -23 32
-36 21 -6 30 -12 20 -13 -11 -1 -27 -7 -35 -15 -9 -8 -23 -16 -31 -17 -19 -5
-130 22 -130 31 0 3 14 16 30 28 17 13 30 27 30 33 0 33 63 52 88 27z m-98
-28 c0 -5 -5 -10 -11 -10 -5 0 -7 5 -4 10 3 6 8 10 11 10 2 0 4 -4 4 -10z
m160 -157 c19 -3 49 -5 66 -4 22 2 33 -3 38 -15 5 -13 9 -15 18 -6 16 16 55
15 62 0 3 -9 8 -8 16 5 6 9 15 17 19 17 14 0 21 -42 10 -62 -8 -16 -13 -17
-25 -7 -11 9 -18 8 -33 -6 -13 -11 -27 -14 -42 -10 -20 7 -21 4 -17 -30 4 -31
1 -38 -22 -50 -15 -8 -32 -21 -40 -29 -11 -15 -14 -15 -25 1 -11 14 -17 15
-36 6 -67 -33 -155 -13 -146 32 2 15 -1 26 -11 30 -10 4 -12 0 -8 -10 3 -9 2
-13 -4 -10 -6 3 -10 15 -10 25 0 11 -10 24 -21 31 -15 8 -19 8 -15 0 4 -6 3
-11 -3 -11 -6 0 -15 9 -21 19 -13 25 -13 34 0 26 13 -8 13 1 -2 24 -6 10 -9
25 -5 34 5 13 23 14 114 11 59 -3 124 -7 143 -11z m-283 -113 c3 -13 19 -53
35 -87 15 -34 28 -71 28 -80 0 -22 49 -51 101 -59 21 -4 39 -11 39 -17 0 -5 8
-3 17 4 11 10 14 10 9 2 -4 -7 -2 -13 4 -13 6 0 20 -9 31 -19 17 -16 19 -23
10 -40 -11 -19 -23 -25 -43 -22 -4 0 -5 -5 -2 -13 3 -8 0 -18 -8 -22 -17 -11
-98 -12 -98 -1 0 4 -5 5 -10 2 -15 -9 -68 32 -85 65 -8 16 -18 46 -21 67 -3
21 -10 41 -15 44 -6 3 -3 11 6 19 20 16 19 40 -1 40 -8 0 -13 4 -9 9 3 5 1 12
-5 16 -6 4 -8 10 -5 15 3 4 -2 11 -11 14 -9 3 -14 13 -11 20 3 8 -1 17 -9 20
-9 3 -14 20 -14 45 0 22 -5 41 -12 44 -9 3 -7 10 6 26 l20 22 23 -38 c13 -21
26 -49 30 -63z m-2 -509 c-3 -5 4 -16 16 -25 12 -8 18 -19 15 -24 -8 -13 42
-45 63 -39 11 3 17 -2 18 -15 2 -15 -3 -18 -20 -13 -16 5 -18 4 -8 -3 11 -8
10 -12 -5 -21 -17 -11 -17 -11 3 -6 13 3 31 2 40 -4 10 -6 12 -11 6 -11 -19 0
-16 -20 3 -20 13 0 14 -3 4 -15 -7 -8 -16 -13 -20 -10 -5 3 -12 0 -16 -6 -5
-8 -3 -9 6 -4 10 6 12 4 7 -9 -5 -13 -1 -19 13 -23 16 -4 17 -7 5 -19 -7 -8
-16 -14 -20 -14 -10 0 -99 70 -89 70 5 0 -6 10 -24 21 -26 17 -30 24 -21 35 9
11 8 14 -5 14 -9 0 -16 6 -16 14 0 8 -7 17 -17 20 -14 6 -14 8 3 21 23 17 34
19 34 4 0 -5 -4 -7 -10 -4 -5 3 -10 -1 -10 -10 0 -12 6 -15 21 -10 16 6 20 4
13 -6 -6 -12 -5 -12 9 0 18 15 23 26 7 16 -14 -9 -32 43 -21 63 4 9 6 23 4 30
-3 6 0 12 7 12 6 0 9 -4 5 -9z m70 -11 c3 -5 1 -10 -4 -10 -6 0 -11 5 -11 10
0 6 2 10 4 10 3 0 8 -4 11 -10z m-100 -20 c3 -5 -1 -10 -9 -10 -9 0 -16 5 -16
10 0 6 4 10 9 10 6 0 13 -4 16 -10z m210 -170 c3 -6 -1 -7 -9 -4 -18 7 -21 14
-7 14 6 0 13 -4 16 -10z m-190 -10 c-3 -5 -12 -10 -18 -10 -7 0 -6 4 3 10 19
12 23 12 15 0z m155 -14 c0 -3 -4 -8 -10 -11 -5 -3 -10 -1 -10 4 0 6 5 11 10
11 6 0 10 -2 10 -4z m25 -6 c3 -5 1 -10 -4 -10 -6 0 -11 5 -11 10 0 6 2 10 4
10 3 0 8 -4 11 -10z m351 -417 c0 -28 -7 -44 -25 -60 -14 -12 -30 -19 -35 -15
-6 3 -18 5 -28 4 -9 -2 -20 3 -24 10 -13 21 -15 48 -3 48 6 0 9 7 6 14 -4 10
-1 13 9 9 8 -3 20 -1 27 5 6 6 26 12 42 15 17 2 30 5 31 6 0 0 0 -16 0 -36z"/>
<path d="M3908 9373 c6 -2 18 -2 25 0 6 3 1 5 -13 5 -14 0 -19 -2 -12 -5z"/>
<path d="M4080 8820 c0 -5 5 -10 11 -10 5 0 7 5 4 10 -3 6 -8 10 -11 10 -2 0
-4 -4 -4 -10z"/>
<path d="M4125 8800 c3 -5 8 -10 11 -10 2 0 4 5 4 10 0 6 -5 10 -11 10 -5 0
-7 -4 -4 -10z"/>
<path d="M4047 8050 c10 -11 21 -20 25 -20 4 0 0 9 -9 20 -10 11 -21 20 -25
20 -4 0 0 -9 9 -20z"/>
<path d="M3905 7950 c3 -5 8 -10 11 -10 2 0 4 5 4 10 0 6 -5 10 -11 10 -5 0
-7 -4 -4 -10z"/>
<path d="M6114 6199 c-4 -7 -8 -42 -9 -78 -1 -36 -3 -72 -4 -78 -2 -20 -48 6
-55 31 -6 19 -7 20 -17 4 -5 -10 -11 -39 -11 -65 -2 -39 5 -59 32 -106 19 -32
41 -68 47 -80 7 -12 13 -16 13 -8 0 8 14 -4 31 -25 25 -31 28 -40 15 -42 -9
-2 -16 -7 -16 -10 1 -19 105 -221 166 -323 111 -182 293 -585 330 -729 25 -97
14 -149 -55 -288 -33 -64 -73 -150 -91 -190 -44 -103 -83 -165 -155 -252 -120
-144 -234 -242 -393 -339 -92 -56 -108 -62 -92 -31 16 31 3 99 -46 238 -33 94
-41 128 -34 142 6 10 10 25 10 32 0 7 -6 4 -12 -7 -30 -55 -170 -156 -263
-191 -38 -15 -121 -46 -184 -70 -63 -25 -116 -42 -118 -40 -3 2 3 16 12 30 17
25 17 26 -3 26 -23 0 -37 -15 -46 -52 -7 -33 -32 -37 -41 -8 -5 15 -15 20 -40
20 -43 0 -51 -14 -25 -40 17 -17 18 -21 5 -26 -8 -3 -13 -10 -10 -14 3 -5 -5
-6 -17 -2 -15 4 -19 2 -13 -7 6 -10 -2 -12 -31 -8 -49 7 -86 -1 -77 -17 4 -7
1 -6 -9 1 -8 7 -17 11 -20 8 -2 -3 -18 -7 -34 -10 -16 -2 -58 -12 -94 -20 -43
-11 -131 -18 -260 -21 -213 -5 -319 -25 -340 -64 -15 -27 -12 -138 4 -195 51
-176 52 -179 77 -186 24 -5 24 -5 2 -13 -34 -11 -61 12 -69 59 -3 22 -11 46
-17 53 -6 8 -14 71 -18 140 -4 70 -10 139 -14 153 -5 19 -2 28 9 32 8 3 18 2
21 -4 4 -5 12 -6 18 -2 7 4 37 13 67 19 47 11 50 12 20 13 -19 1 -62 -4 -95
-10 -33 -5 -76 -13 -95 -16 -43 -7 -298 -6 -400 2 -41 3 -87 7 -102 7 -16 1
-28 6 -28 10 0 5 -5 6 -11 2 -6 -3 -15 0 -20 7 -8 12 -12 11 -23 -3 -16 -22
-56 -24 -56 -3 0 8 -5 15 -11 15 -5 0 -7 -5 -3 -11 4 -7 -1 -10 -12 -7 -12 2
-19 11 -18 25 1 19 -3 21 -35 16 -20 -4 -39 -11 -43 -17 -5 -7 -8 -6 -8 3 0 9
-8 11 -25 7 -15 -4 -25 -2 -25 4 0 6 -5 8 -10 5 -6 -4 -18 -1 -26 6 -13 10
-17 10 -25 -2 -5 -8 -9 -9 -9 -4 0 6 -17 17 -37 24 -256 86 -325 115 -367 154
-17 15 -33 27 -37 27 -4 0 -10 -26 -14 -57 -7 -57 -38 -172 -56 -205 -5 -10
-12 -42 -15 -73 -4 -30 -10 -55 -13 -55 -4 0 -65 44 -136 98 -101 76 -154 125
-238 222 -228 262 -270 326 -371 565 -25 61 -72 156 -103 210 -51 88 -58 108
-61 165 -6 106 29 185 223 500 56 91 121 201 145 245 24 44 78 134 120 200 94
146 126 202 120 209 -3 2 -27 0 -54 -6 -138 -29 -468 99 -692 268 l-81 62 -81
-157 c-44 -86 -128 -273 -185 -416 -58 -143 -122 -298 -142 -345 -94 -216
-165 -470 -165 -588 0 -94 21 -195 55 -269 34 -76 197 -319 296 -444 109 -137
312 -339 534 -531 201 -173 282 -255 342 -343 23 -33 64 -78 92 -99 58 -44 88
-84 151 -203 49 -93 64 -103 153 -103 222 1 468 165 588 395 34 65 54 83 26
23 -9 -18 -20 -45 -26 -60 -37 -98 -216 -262 -348 -319 -73 -32 -191 -60 -258
-62 -33 -1 -66 -6 -74 -11 -9 -6 -12 -5 -7 2 3 6 2 13 -3 17 -6 3 -15 -14 -21
-37 -52 -199 -66 -261 -84 -371 -9 -49 -27 -122 -41 -164 -21 -61 -25 -87 -21
-133 7 -72 -17 -220 -49 -306 -23 -60 -25 -80 -23 -183 2 -64 -1 -145 -5 -181
-9 -71 -12 -774 -3 -788 3 -5 5 -60 6 -123 0 -63 3 -167 7 -231 l6 -118 932 0
932 0 6 32 c40 235 110 634 112 636 1 1 8 -55 14 -125 7 -70 17 -162 22 -203
15 -111 39 -313 39 -327 0 -10 176 -13 844 -13 l844 0 26 113 c14 61 44 168
66 237 21 69 49 163 60 210 11 47 38 155 60 240 80 320 96 476 81 795 -17 352
-62 622 -162 978 -22 75 -39 153 -39 173 0 19 -8 52 -18 73 l-19 39 36 63 c19
35 53 79 75 99 22 19 78 75 125 124 77 79 156 147 511 436 187 152 362 340
502 540 137 194 165 342 112 579 -24 106 -39 163 -125 456 -17 55 -52 188 -80
295 -28 107 -63 231 -78 275 -30 86 -90 237 -96 244 -2 2 -25 -15 -51 -38 -58
-51 -295 -169 -424 -212 -115 -38 -214 -44 -272 -15 -59 29 -74 69 -81 226 -9
185 -44 316 -73 269z m-346 -2380 c18 -56 31 -103 29 -105 -2 -2 -18 17 -36
43 -25 36 -34 61 -39 105 -3 34 -1 58 5 58 5 0 24 -46 41 -101z m-658 -183 c0
-2 -9 -6 -20 -9 -11 -3 -18 -1 -14 4 5 9 34 13 34 5z m-255 -55 c3 -5 1 -12
-5 -16 -5 -3 -10 1 -10 9 0 18 6 21 15 7z m-1475 -5 c0 -3 -4 -8 -10 -11 -5
-3 -10 -1 -10 4 0 6 5 11 10 11 6 0 10 -2 10 -4z m1510 -6 c0 -5 -2 -10 -4
-10 -3 0 -8 5 -11 10 -3 6 -1 10 4 10 6 0 11 -4 11 -10z m-1541 -97 c-10 -43
-19 -89 -20 -103 -1 -17 -3 -19 -6 -8 -4 16 23 162 34 181 11 19 9 1 -8 -70z
m54 45 c4 -12 3 -25 -2 -28 -11 -7 -24 -76 -25 -132 -1 -38 -5 -49 -23 -57
-20 -9 -21 -8 -16 27 3 20 9 39 12 42 3 3 7 16 8 30 6 110 32 174 46 118z
m1481 4 c13 -41 42 -222 35 -222 -4 0 -13 39 -20 86 -7 48 -20 102 -30 120
-13 26 -14 34 -4 34 8 0 16 -8 19 -18z m-2597 -16 c9 -8 -5 -36 -18 -36 -8 0
-8 4 1 15 10 12 10 15 -4 15 -9 0 -16 -5 -16 -10 0 -7 -7 -7 -21 1 -15 8 -18
13 -10 19 13 8 59 5 68 -4z m1156 -26 c-3 -11 -9 -20 -14 -20 -10 0 -12 24 -2
33 13 13 21 7 16 -13z m-16 -82 c-3 -7 -5 -2 -5 12 0 14 2 19 5 13 2 -7 2 -19
0 -25z m-952 12 c4 -6 2 -17 -4 -24 -9 -10 -7 -15 9 -19 13 -3 18 -10 14 -21
-3 -9 -1 -16 5 -16 6 0 11 6 11 13 0 6 6 3 12 -8 20 -35 36 -47 42 -32 3 6 3
0 0 -15 -4 -18 -2 -26 8 -25 41 1 49 -3 46 -30 -2 -20 2 -28 12 -28 27 0 61
-44 54 -71 -4 -15 -2 -24 6 -24 6 0 8 -4 5 -10 -3 -5 -2 -10 4 -10 5 0 9 9 8
19 0 11 -5 17 -10 14 -5 -3 -8 0 -5 7 7 23 55 21 66 -3 6 -12 11 -16 11 -10 1
10 7 10 25 2 16 -8 23 -17 19 -28 -3 -10 -2 -12 4 -5 4 6 18 13 29 16 17 4 20
2 17 -13 -4 -15 0 -19 20 -19 22 0 28 -7 38 -40 7 -22 16 -37 22 -33 7 4 7 -1
2 -13 -4 -10 -10 -34 -13 -51 -2 -18 -8 -31 -12 -28 -4 2 -13 -7 -20 -20 -11
-20 -16 -22 -33 -14 -11 6 -22 7 -26 3 -3 -5 -15 -10 -26 -12 -15 -2 -17 -1
-6 6 7 6 10 15 6 21 -5 9 -11 7 -20 -5 -10 -15 -14 -15 -27 -3 -14 12 -14 15
1 27 9 7 11 11 5 8 -7 -3 -14 1 -18 9 -3 8 -11 15 -19 15 -12 0 -57 43 -57 54
0 2 10 2 23 -1 21 -4 21 -4 2 8 -11 7 -21 11 -22 8 -1 -2 -9 5 -17 16 -10 14
-26 20 -52 20 -35 0 -39 4 -62 48 -14 26 -29 47 -34 47 -5 0 -6 -5 -2 -12 5
-7 3 -8 -5 -4 -7 5 -10 14 -7 22 3 8 1 14 -4 14 -6 0 -10 8 -10 18 0 9 -10 22
-22 27 -14 6 -22 17 -20 28 2 11 -4 17 -18 17 -11 0 -23 7 -26 15 -3 8 -14 17
-24 20 -11 4 -17 12 -13 20 3 8 -2 17 -10 21 -16 6 -21 54 -5 54 5 0 6 -4 3
-10 -3 -5 0 -11 7 -11 7 -1 20 -2 28 -3 8 0 14 -6 13 -12 -1 -6 5 -11 13 -11
18 0 18 5 -1 23 -22 22 -19 43 5 37 15 -4 18 -9 10 -18 -8 -9 -7 -14 3 -18 10
-4 13 1 12 16 -4 37 -5 38 -17 31 -7 -4 -8 -3 -4 4 9 15 43 16 51 2z m542 -8
c12 -7 28 -12 36 -12 10 0 13 -7 10 -20 -5 -18 -7 -18 -32 -5 -14 8 -37 23
-51 35 -22 18 -23 20 -5 17 11 -2 30 -8 42 -15z m1318 -12 c2 -4 -7 -5 -20 -2
-14 2 -25 8 -25 12 0 10 38 1 45 -10z m-108 -32 c-3 -7 -5 -2 -5 12 0 14 2 19
5 13 2 -7 2 -19 0 -25z m-1112 12 c3 -6 -1 -7 -9 -4 -18 7 -21 14 -7 14 6 0
13 -4 16 -10z m302 -27 c-3 -10 -5 -4 -5 12 0 17 2 24 5 18 2 -7 2 -21 0 -30z
m1013 27 c0 -5 -4 -10 -10 -10 -5 0 -10 5 -10 10 0 6 5 10 10 10 6 0 10 -4 10
-10z m-1256 -41 c-6 -11 -24 -2 -24 11 0 5 7 7 15 4 8 -4 12 -10 9 -15z m1093
-1 c-3 -8 -6 -5 -6 6 -1 11 2 17 5 13 3 -3 4 -12 1 -19z m203 7 c0 -8 -7 -15
-15 -15 -8 0 -15 7 -15 15 0 8 7 15 15 15 8 0 15 -7 15 -15z m-1153 -27 c-3
-7 -5 -2 -5 12 0 14 2 19 5 13 2 -7 2 -19 0 -25z m1113 19 c0 -7 -9 -13 -21
-14 -17 -2 -18 1 -9 13 15 17 30 18 30 1z m497 -59 c-3 -8 -6 -5 -6 6 -1 11 2
17 5 13 3 -3 4 -12 1 -19z m-1900 0 c15 -6 34 -10 41 -9 6 1 12 -3 12 -10 0
-9 3 -9 14 0 11 9 15 8 20 -4 3 -9 10 -14 15 -10 5 3 12 1 16 -5 4 -6 10 -8
15 -5 5 3 11 1 15 -5 3 -5 15 -10 26 -10 10 0 19 -4 19 -9 0 -16 -165 30 -230
65 -32 17 -3 19 37 2z m230 -74 c-3 -3 -12 -4 -19 -1 -8 3 -5 6 6 6 11 1 17
-2 13 -5z m541 -23 c52 -1 81 -5 77 -11 -3 -5 -16 -8 -28 -6 -12 3 -85 6 -162
7 -90 1 -122 4 -90 8 28 3 66 5 85 4 19 0 72 -2 118 -2z m-490 -36 c-1 -19 -4
-35 -7 -35 -9 0 -10 -54 -2 -60 5 -3 -1 -14 -12 -25 -20 -20 -20 -20 -15 20 5
39 5 40 -26 40 -37 0 -65 43 -46 72 9 15 10 15 4 -5 l-6 -24 21 21 c24 24 34
25 62 11 15 -8 19 -7 19 5 0 8 2 15 5 15 2 0 4 -16 3 -35z m607 25 c3 -5 -1
-10 -9 -10 -9 0 -16 5 -16 10 0 6 4 10 9 10 6 0 13 -4 16 -10z m-555 -10 c0
-5 -2 -10 -4 -10 -3 0 -8 5 -11 10 -3 6 -1 10 4 10 6 0 11 -4 11 -10z m1589
-63 c1 -5 -3 -5 -9 -2 -5 3 -10 16 -9 28 0 21 1 21 9 2 5 -11 9 -24 9 -28z
m-1595 18 c-4 -8 -11 -12 -16 -9 -6 4 -5 10 3 15 19 12 19 11 13 -6z m1826
-48 c0 -18 61 -103 110 -152 29 -30 48 -55 42 -55 -13 0 -92 80 -92 93 0 4 -4
6 -8 3 -5 -3 -15 7 -23 22 -8 15 -20 31 -26 35 -7 4 -13 17 -13 27 0 10 -4 22
-10 25 -5 3 -10 16 -10 28 0 20 0 20 15 1 8 -10 15 -22 15 -27z m-1830 -12 c0
-18 -4 -23 -15 -19 -25 10 -19 33 13 43 1 1 2 -10 2 -24z m1590 -32 c-11 -17
-11 -17 -6 0 3 10 7 28 7 40 2 22 2 22 6 0 2 -12 -1 -30 -7 -40z m-720 3 c0
-3 -4 -8 -10 -11 -5 -3 -10 -1 -10 4 0 6 5 11 10 11 6 0 10 -2 10 -4z m-937
-43 c-7 -2 -13 -11 -13 -19 0 -8 -4 -14 -10 -14 -12 0 -12 3 -4 24 3 9 14 16
23 15 10 0 11 -2 4 -6z m1671 -8 c3 -8 1 -15 -4 -15 -6 0 -10 7 -10 15 0 8 2
15 4 15 2 0 6 -7 10 -15z m106 11 c0 -3 -4 -8 -10 -11 -5 -3 -10 -1 -10 4 0 6
5 11 10 11 6 0 10 -2 10 -4z m40 -15 c14 -26 3 -50 -20 -44 -16 4 -17 9 -8 34
12 34 14 35 28 10z m-1740 -1 c11 -8 8 -9 -12 -4 -31 7 -40 -11 -10 -19 13 -4
11 -5 -5 -6 -17 -1 -23 5 -23 19 0 22 25 27 50 10z m-110 -72 c0 -20 -1 -21
-24 -12 -17 6 -21 31 -9 59 5 15 8 14 19 -6 7 -13 13 -32 14 -41z m-505 32 c3
-5 1 -10 -4 -10 -6 0 -11 5 -11 10 0 6 2 10 4 10 3 0 8 -4 11 -10z m2380 1 c3
-5 1 -12 -5 -16 -5 -3 -10 1 -10 9 0 18 6 21 15 7z m-1985 -45 c0 -3 -4 -8
-10 -11 -5 -3 -10 -1 -10 4 0 6 5 11 10 11 6 0 10 -2 10 -4z m2245 -56 c3 -5
1 -10 -4 -10 -6 0 -11 5 -11 10 0 6 2 10 4 10 3 0 8 -4 11 -10z m-1168 -42
c-3 -8 -6 -5 -6 6 -1 11 2 17 5 13 3 -3 4 -12 1 -19z m1210 16 c-3 -3 -12 -4
-19 -1 -8 3 -5 6 6 6 11 1 17 -2 13 -5z m-2637 -14 c0 -5 -5 -10 -11 -10 -5 0
-7 5 -4 10 3 6 8 10 11 10 2 0 4 -4 4 -10z m1440 -75 c0 -14 -4 -25 -10 -25
-5 0 -10 11 -10 25 0 14 5 25 10 25 6 0 10 -11 10 -25z m-1 -97 c-1 -35 0
-157 1 -272 1 -114 -1 -211 -4 -214 -3 -3 -6 24 -6 59 0 35 -3 160 -7 277 -4
152 -3 212 5 212 7 0 11 -23 11 -62z m-1709 -88 c0 -5 -4 -10 -10 -10 -5 0
-10 5 -10 10 0 6 5 10 10 10 6 0 10 -4 10 -10z m-133 -232 c-3 -8 -6 -5 -6 6
-1 11 2 17 5 13 3 -3 4 -12 1 -19z"/>
<path d="M2720 3125 c0 -5 5 -17 10 -25 5 -8 10 -10 10 -5 0 6 -5 17 -10 25
-5 8 -10 11 -10 5z"/>
<path d="M5917 5952 c-17 -18 -9 -46 9 -34 15 9 28 52 16 52 -5 0 -16 -8 -25
-18z"/>
<path d="M5561 4808 c-9 -24 -4 -55 10 -64 5 -3 9 -13 9 -23 0 -10 8 -40 19
-67 10 -27 24 -71 30 -97 11 -49 97 -207 112 -207 5 0 20 22 34 50 22 43 24
55 16 92 -6 24 -6 47 -2 51 5 5 0 26 -10 47 -11 22 -19 43 -19 48 0 5 -12 20
-27 34 -16 15 -39 42 -53 61 -14 20 -36 41 -49 47 -13 6 -21 14 -17 17 6 6
-23 32 -37 33 -4 0 -11 -10 -16 -22z"/>
<path d="M3011 3686 c12 -10 59 -15 59 -6 0 5 -14 10 -32 10 -17 0 -29 -2 -27
-4z"/>
<path d="M4392 3578 c-46 -6 -81 -12 -79 -15 9 -8 197 10 191 18 -3 5 -11 8
-17 8 -7 -1 -49 -6 -95 -11z"/>
</g>
</svg>
